<svg width="23" height="20" viewBox="0 0 23 20" fill="none" xmlns="http://www.w3.org/2000/svg">
<path d="M9.89457 1.37103C10.1328 0.910089 9.95316 0.343681 9.49613 0.105399C9.03909 -0.132883 8.46878 0.0468049 8.2305 0.503838L4.59377 7.49996H1.25C0.558596 7.49996 0 8.05855 0 8.74996C0 9.44137 0.558596 9.99996 1.25 9.99996L3.27736 18.1055C3.5547 19.2187 4.5547 20 5.70315 20H16.7969C17.9454 20 18.9454 19.2187 19.2227 18.1055L21.2501 9.99996C21.9415 9.99996 22.5001 9.44137 22.5001 8.74996C22.5001 8.05855 21.9415 7.49996 21.2501 7.49996H17.9063L14.2696 0.503838C14.0313 0.0468049 13.4649 -0.132883 13.004 0.105399C12.543 0.343681 12.3672 0.910089 12.6055 1.37103L15.793 7.49996H6.70705L9.89457 1.37103ZM7.50003 11.875V15.625C7.50003 15.9687 7.21878 16.25 6.87502 16.25C6.53127 16.25 6.25002 15.9687 6.25002 15.625V11.875C6.25002 11.5312 6.53127 11.25 6.87502 11.25C7.21878 11.25 7.50003 11.5312 7.50003 11.875ZM11.25 11.25C11.5938 11.25 11.875 11.5312 11.875 11.875V15.625C11.875 15.9687 11.5938 16.25 11.25 16.25C10.9063 16.25 10.625 15.9687 10.625 15.625V11.875C10.625 11.5312 10.9063 11.25 11.25 11.25ZM16.2501 11.875V15.625C16.2501 15.9687 15.9688 16.25 15.6251 16.25C15.2813 16.25 15.0001 15.9687 15.0001 15.625V11.875C15.0001 11.5312 15.2813 11.25 15.6251 11.25C15.9688 11.25 16.2501 11.5312 16.2501 11.875Z" fill="white"/>
</svg>
