<svg width="49" height="49" viewBox="0 0 49 49" fill="none" xmlns="http://www.w3.org/2000/svg">
<path d="M40.816 26.5396L37.9789 44.9148H27.5735L24.7366 26.5396H29.4784L28.6936 21.0467L33.1034 20.4167L33.978 26.5396H40.816Z" fill="#1EE3E4"/>
<path fill-rule="evenodd" clip-rule="evenodd" d="M38.7917 26.5396V8.16669C36.5753 8.16669 35.5242 8.73111 34.5275 9.26641C33.6283 9.74922 32.7735 10.2084 31.1473 10.2084C29.4643 10.2084 28.4815 9.71664 27.4802 9.21582C26.4414 8.69615 25.383 8.16669 23.5027 8.16669C21.6884 8.16669 20.7664 8.65969 19.8285 9.16116C18.8578 9.68022 17.87 10.2084 15.8583 10.2084C13.9124 10.2084 13.0406 9.71425 12.1547 9.21216C11.2398 8.69368 10.3099 8.16669 8.16669 8.16669V44.9167H36.75L27.5735 44.9149L24.7364 26.5396H29.4782L28.6936 21.0467L33.1034 20.4167L33.978 26.5396H38.7917ZM19.1042 16.3334C19.1042 15.2058 20.0836 14.2917 21.2917 14.2917H25.6666C26.8749 14.2917 27.8543 15.2058 27.8543 16.3334C27.8543 17.4609 26.8749 18.375 25.6666 18.375H21.2917C20.0836 18.375 19.1042 17.4609 19.1042 16.3334Z" fill="#21201F"/>
</svg>
