<svg width="48" height="48" viewBox="0 0 48 48" fill="none" xmlns="http://www.w3.org/2000/svg">
<rect width="48" height="48" rx="15" fill="#D9D9D9"/>
<path d="M31.9916 24.999L30.602 33.9991H25.5055L24.116 24.999H26.4385L26.0541 22.3086L28.214 22L28.6424 24.999H31.9916Z" fill="#1BBABB"/>
<path fill-rule="evenodd" clip-rule="evenodd" d="M31 24.999V16C29.9144 16 29.3996 16.2765 28.9114 16.5386C28.471 16.7751 28.0523 17 27.2558 17C26.4315 17 25.9501 16.7592 25.4597 16.5139C24.9509 16.2593 24.4325 16 23.5115 16C22.6229 16 22.1713 16.2415 21.7119 16.4871C21.2364 16.7413 20.7527 17 19.7673 17C18.8142 17 18.3872 16.758 17.9533 16.5121C17.5052 16.2581 17.0497 16 16 16V34H30L25.5054 33.9991L24.1158 24.999H26.4383L26.054 22.3086L28.2139 22L28.6423 24.999H31ZM21.3571 20C21.3571 19.4477 21.8368 19 22.4286 19H24.5714C25.1632 19 25.6429 19.4477 25.6429 20C25.6429 20.5523 25.1632 21 24.5714 21H22.4286C21.8368 21 21.3571 20.5523 21.3571 20Z" fill="#21201F"/>
</svg>
