<svg width="150" height="134" viewBox="0 0 150 134" fill="none" xmlns="http://www.w3.org/2000/svg">
<path d="M65.9635 9.70092C67.5521 6.64269 66.3542 2.88471 63.3073 1.30376C60.2604 -0.277188 56.4583 0.915002 54.8698 3.94731L30.625 50.365H8.33333C3.72396 50.365 0 54.0711 0 58.6585C0 63.2458 3.72396 66.952 8.33333 66.952L21.849 120.73C23.6979 128.116 30.3646 133.3 38.0208 133.3H111.979C119.635 133.3 126.302 128.116 128.151 120.73L141.667 66.952C146.276 66.952 150 63.2458 150 58.6585C150 54.0711 146.276 50.365 141.667 50.365H119.375L95.1302 3.94731C93.5417 0.915002 89.7656 -0.277188 86.6927 1.30376C83.6198 2.88471 82.4479 6.64269 84.0365 9.70092L105.286 50.365H44.7135L65.9635 9.70092ZM50 79.3922V104.273C50 106.553 48.125 108.419 45.8333 108.419C43.5417 108.419 41.6667 106.553 41.6667 104.273V79.3922C41.6667 77.1115 43.5417 75.2454 45.8333 75.2454C48.125 75.2454 50 77.1115 50 79.3922ZM75 75.2454C77.2917 75.2454 79.1667 77.1115 79.1667 79.3922V104.273C79.1667 106.553 77.2917 108.419 75 108.419C72.7083 108.419 70.8333 106.553 70.8333 104.273V79.3922C70.8333 77.1115 72.7083 75.2454 75 75.2454ZM108.333 79.3922V104.273C108.333 106.553 106.458 108.419 104.167 108.419C101.875 108.419 100 106.553 100 104.273V79.3922C100 77.1115 101.875 75.2454 104.167 75.2454C106.458 75.2454 108.333 77.1115 108.333 79.3922Z" fill="#BCBCBC" fill-opacity="0.25"/>
</svg>
