<svg width="48" height="48" viewBox="0 0 48 48" fill="none" xmlns="http://www.w3.org/2000/svg">
<rect width="48" height="48" rx="15" fill="#D9D9D9"/>
<path fill-rule="evenodd" clip-rule="evenodd" d="M21.1861 18.2923L21.8346 18.4226L21.8336 18.4241C22.066 18.4781 25.3501 19.241 25.3527 19.2408C25.3554 19.2406 22.8647 24.1561 22.8647 24.1561L19.0825 23.2844L19.8763 19.8578L19.0413 19.2489L19.207 19.0335C19.6716 18.4296 20.439 18.1422 21.1861 18.2923Z" fill="#1BBABB"/>
<path fill-rule="evenodd" clip-rule="evenodd" d="M23.3927 23.8506C23.8724 24.1249 24.0283 24.7428 23.736 25.2118L22.7107 26.8567L22.3767 27.3923C22.0418 27.9297 21.6239 28.4107 21.1386 28.8174L20.0688 29.7139L18.3832 31.1268C17.8802 30.5642 17.9128 29.7045 18.4568 29.1816L20.5186 27.1999L22.0436 24.2491C22.2981 23.7567 22.9115 23.5755 23.3927 23.8506Z" fill="#21201F"/>
<path d="M26.1136 23.4212C25.7566 23.5228 25.3825 23.3272 25.2621 22.9761L24.334 20.2699C24.1911 19.8533 24.4162 19.4004 24.8345 19.2626C25.2646 19.121 25.7255 19.3688 25.8445 19.8058L26.5961 22.5662C26.6966 22.9353 26.4815 23.3165 26.1136 23.4212Z" fill="#21201F"/>
<path d="M25.3473 22.6655C25.4783 22.3039 25.8854 22.1257 26.2399 22.2747L28.3414 23.1578C28.8665 23.3785 29.1265 23.9722 28.9324 24.5078L25.7815 23.5372C25.4143 23.4241 25.2164 23.0268 25.3473 22.6655Z" fill="#21201F"/>
<path d="M22.8432 20.564C23.0801 19.5623 24.0841 18.9423 25.0858 19.1792C25.5866 19.2976 25.8966 19.7996 25.7782 20.3004L24.5452 25.5147L21.8247 24.8714L22.8432 20.564Z" fill="#21201F"/>
<path d="M26.8576 16.8571C26.8576 17.6461 26.218 18.2857 25.429 18.2857C24.6401 18.2857 24.0005 17.6461 24.0005 16.8571C24.0005 16.0681 24.6401 15.4286 25.429 15.4286C26.218 15.4286 26.8576 16.0681 26.8576 16.8571Z" fill="#21201F"/>
<path fill-rule="evenodd" clip-rule="evenodd" d="M23.0931 24.1504C23.5058 23.7829 24.1412 23.832 24.4927 24.2584L26.2482 26.3882C26.6369 26.9013 26.8509 27.5267 26.8568 28.1721V32.5726C26.0935 32.5457 25.4762 31.9419 25.4324 31.1793L25.2398 27.8248L23.0412 25.5561C22.6555 25.1581 22.6791 24.5189 23.0931 24.1504Z" fill="#21201F"/>
</svg>
