<svg width="49" height="49" viewBox="0 0 49 49" fill="none" xmlns="http://www.w3.org/2000/svg">
<path fill-rule="evenodd" clip-rule="evenodd" d="M18.7547 12.8467L20.0787 13.1127L20.0767 13.1159C20.5512 13.2261 27.2562 14.7837 27.2615 14.7833C27.2671 14.7829 22.1819 24.8187 22.1819 24.8187L14.4599 23.039L16.0805 16.0431L14.3757 14.7999L14.7141 14.3601C15.6627 13.1271 17.2295 12.5403 18.7547 12.8467Z" fill="#1BBABB"/>
<path fill-rule="evenodd" clip-rule="evenodd" d="M23.2599 24.195C24.2393 24.755 24.5576 26.0166 23.9608 26.9741L21.8675 30.3324L21.1856 31.4259C20.5018 32.5231 19.6485 33.5052 18.6576 34.3355L16.4736 36.1659L13.0321 39.0506C12.0052 37.9019 12.0716 36.1467 13.1824 35.0791L17.3919 31.0331L20.5055 25.0086C21.0251 24.0033 22.2774 23.6333 23.2599 24.195Z" fill="#21201F"/>
<path d="M28.8153 23.3183C28.0864 23.5257 27.3226 23.1263 27.0768 22.4095L25.1819 16.8843C24.8902 16.0339 25.3498 15.1091 26.2038 14.8278C27.0819 14.5386 28.0229 15.0447 28.2659 15.9367L29.8004 21.5726C30.0056 22.3262 29.5664 23.1045 28.8153 23.3183Z" fill="#21201F"/>
<path d="M27.2507 21.7754C27.5182 21.0371 28.3493 20.6733 29.0731 20.9775L33.3637 22.7805C34.4358 23.2311 34.9666 24.4433 34.5703 25.5368L28.1372 23.5551C27.3875 23.3242 26.9835 22.5131 27.2507 21.7754Z" fill="#21201F"/>
<path d="M22.1384 17.4848C22.6221 15.4397 24.6719 14.1739 26.7171 14.6575C27.7395 14.8993 28.3724 15.9242 28.1307 16.9468L25.6133 27.5925L20.059 26.2791L22.1384 17.4848Z" fill="#21201F"/>
<path d="M30.3341 9.91666C30.3341 11.5275 29.0282 12.8333 27.4173 12.8333C25.8067 12.8333 24.5008 11.5275 24.5008 9.91666C24.5008 8.30583 25.8067 7 27.4173 7C29.0282 7 30.3341 8.30583 30.3341 9.91666Z" fill="#21201F"/>
<path fill-rule="evenodd" clip-rule="evenodd" d="M22.6484 24.807C23.491 24.0567 24.7883 24.157 25.5059 25.0275L29.0901 29.3759C29.8837 30.4235 30.3206 31.7003 30.3326 33.018V42.0024C28.7742 41.9474 27.5139 40.7147 27.4245 39.1577L27.0313 32.3089L22.5425 27.677C21.755 26.8644 21.8032 25.5594 22.6484 24.807Z" fill="#21201F"/>
</svg>
