<svg width="12" height="14" viewBox="0 0 12 14" fill="none" xmlns="http://www.w3.org/2000/svg">
<path d="M6.85704 2.14285C6.85704 1.66874 6.474 1.28571 5.9999 1.28571C5.52579 1.28571 5.14275 1.66874 5.14275 2.14285V5.99999H1.28561C0.811502 5.99999 0.428467 6.38303 0.428467 6.85713C0.428467 7.33124 0.811502 7.71428 1.28561 7.71428H5.14275V11.5714C5.14275 12.0455 5.52579 12.4286 5.9999 12.4286C6.474 12.4286 6.85704 12.0455 6.85704 11.5714V7.71428H10.7142C11.1883 7.71428 11.5713 7.33124 11.5713 6.85713C11.5713 6.38303 11.1883 5.99999 10.7142 5.99999H6.85704V2.14285Z" fill="white"/>
</svg>
