<svg width="199" height="49" viewBox="0 0 199 49" fill="none" xmlns="http://www.w3.org/2000/svg">
<rect width="199" height="49" rx="16" fill="#1BBABB"/>
<path d="M31.5713 23.8571C31.5713 24.3313 31.1883 24.7143 30.7142 24.7143H21.2856C20.8115 24.7143 20.4285 24.3313 20.4285 23.8571C20.4285 23.383 20.8115 23 21.2856 23H30.7142C31.1883 23 31.5713 23.383 31.5713 23.8571Z" fill="white"/>
<path d="M173.857 19.1428C173.857 18.6687 173.474 18.2857 173 18.2857C172.526 18.2857 172.143 18.6687 172.143 19.1428V23H168.286C167.812 23 167.428 23.383 167.428 23.8571C167.428 24.3312 167.812 24.7143 168.286 24.7143H172.143V28.5714C172.143 29.0455 172.526 29.4286 173 29.4286C173.474 29.4286 173.857 29.0455 173.857 28.5714V24.7143H177.714C178.188 24.7143 178.571 24.3312 178.571 23.8571C178.571 23.383 178.188 23 177.714 23H173.857V19.1428Z" fill="white"/>
<path d="M95.944 30V28.768L99.128 24.752C99.4587 24.3253 99.6773 24.0427 99.784 23.904C99.8907 23.7547 99.992 23.552 100.088 23.296C100.195 23.0293 100.248 22.7147 100.248 22.352C100.248 21.9787 100.12 21.6747 99.864 21.44C99.6187 21.2053 99.2987 21.088 98.904 21.088C98.52 21.088 98.2267 21.12 98.024 21.184C97.832 21.248 97.7147 21.3227 97.672 21.408C97.64 21.4827 97.624 21.6053 97.624 21.776V22.912L95.992 22.8V20.24C96.9947 19.7387 98.024 19.488 99.08 19.488C100.136 19.488 100.931 19.7493 101.464 20.272C101.997 20.784 102.264 21.488 102.264 22.384C102.264 23.28 101.811 24.2773 100.904 25.376L98.328 28.416H102.328V30H95.944Z" fill="white"/>
</svg>
