<svg width="20" height="23" viewBox="0 0 20 23" fill="none" xmlns="http://www.w3.org/2000/svg">
<path d="M18.5714 0C17.8571 0 12.8571 1.42857 12.8571 7.85714V12.8571C12.8571 14.433 14.1384 15.7143 15.7143 15.7143H17.1429V21.4286C17.1429 22.2188 17.7812 22.8571 18.5714 22.8571C19.3616 22.8571 20 22.2188 20 21.4286V15.7143V10.7143V1.42857C20 0.638393 19.3616 0 18.5714 0ZM2.85714 0.714286C2.85714 0.348214 2.58482 0.0446429 2.21875 0.00446429C1.85268 -0.0357143 1.52679 0.205357 1.44643 0.558036L0.09375 6.64286C0.03125 6.92411 0 7.20982 0 7.49554C0 9.54464 1.56696 11.2277 3.57143 11.4107V21.4286C3.57143 22.2188 4.20982 22.8571 5 22.8571C5.79018 22.8571 6.42857 22.2188 6.42857 21.4286V11.4107C8.43304 11.2277 10 9.54464 10 7.49554C10 7.20982 9.96875 6.92411 9.90625 6.64286L8.55357 0.558036C8.47322 0.200893 8.13839 -0.0357143 7.77679 0.00446429C7.41518 0.0446429 7.14286 0.348214 7.14286 0.714286V6.70536C7.14286 6.94643 6.94643 7.14286 6.70536 7.14286C6.47768 7.14286 6.29018 6.96875 6.26786 6.74107L5.70982 0.651786C5.67857 0.28125 5.37054 0 5 0C4.62946 0 4.32143 0.28125 4.29018 0.651786L3.73661 6.74107C3.71429 6.96875 3.52679 7.14286 3.29911 7.14286C3.05804 7.14286 2.86161 6.94643 2.86161 6.70536V0.714286H2.85714ZM5.01339 7.5H5H4.98661L5 7.46875L5.01339 7.5Z" fill="black"/>
</svg>
