<svg width="863" height="1061" viewBox="0 0 863 1061" fill="none" xmlns="http://www.w3.org/2000/svg">
<path d="M635.955 1040.39C647.422 1048.52 663.795 1054.76 674.845 1042.42C685.541 1030.48 687.608 1014.81 682.063 999.989C676.514 985.159 665.704 973.669 651.275 966.957C646.967 964.952 641.34 962.815 636.397 963.597C635.54 963.732 633.317 964.585 633.316 965.812C633.315 967.442 634.733 969.646 635.529 970.928C639.169 976.792 644.162 981.584 649.544 985.826C657.472 992.073 665.727 996.899 675.186 1000.43C681.231 1002.69 688.288 1005.25 694.879 1004.78C705.317 1004.02 701.61 989.443 700.182 983.186C695.514 962.731 682.593 943.204 663.622 933.352C661.811 932.412 647.79 925.978 647.336 931.884C647.144 934.374 649.269 936.786 650.494 938.721C654.557 945.133 660.238 950.316 666.324 954.807C683.061 967.156 707.637 971.039 727.061 963.007C735.407 959.556 741.606 951.883 745.185 943.744C754.009 923.675 740.384 902.363 726.073 888.881C721.623 884.689 714.866 878.334 708.149 877.877C707.302 877.819 706.357 877.929 706.808 879.027C707.993 881.918 710.337 884.874 712.044 887.469C716.294 893.933 722.291 899.235 728.584 903.665C734.024 907.495 740.67 911.495 747.622 910.599C753.651 909.823 758.691 904.067 761.406 899.03C767.107 888.451 770.027 875.609 770.326 863.685C770.597 852.894 768.215 843.452 764.341 833.531" stroke="#1EE3E4" stroke-width="2" stroke-linecap="round"/>
<path d="M573.23 115.331C579.524 127.902 592.051 140.602 611.418 133.004C630.162 125.649 642.593 111.176 646.727 94.4609C650.864 77.7341 647.451 62.148 637.212 49.7703C634.154 46.074 629.845 41.7159 624.305 40.486C623.344 40.2727 620.523 40.2088 619.713 41.4078C618.637 42.9991 618.626 45.7256 618.59 47.2989C618.423 54.4963 620.338 61.1918 623.012 67.5067C626.951 76.8085 632.16 84.8528 639.445 92.1192C644.101 96.7627 649.582 102.116 656.597 104.308C667.704 107.779 673.546 92.0419 676.22 85.3528C684.962 63.4861 684.702 39.1956 671.915 21.9183C670.695 20.2697 660.685 8.32836 656.331 13.9146C654.494 16.2705 655.063 19.4844 655.033 21.8685C654.935 29.7715 657.292 37.1275 660.517 43.9699C669.387 62.7864 691.806 76.4925 716.843 76.4802C727.601 76.475 738.96 71.4795 747.963 64.9713C770.163 48.9234 770.365 22.6051 764.708 3.66084C762.949 -2.22977 760.271 -11.1633 753.745 -14.3202C752.922 -14.718 751.89 -14.9921 751.623 -13.737C750.922 -10.435 751.356 -6.60124 751.38 -3.37692C751.438 4.65263 754.038 12.2508 757.513 19.1177C760.517 25.0542 764.635 31.6422 772.292 33.5719C778.931 35.2453 787.848 31.6549 793.929 27.8285C806.697 19.793 818.131 8.42381 826.297 -3.10545C833.687 -13.5388 837.49 -23.7246 840.093 -34.9793" stroke="#1EE3E4" stroke-width="2" stroke-linecap="round"/>
<path d="M62.0016 711.5C78.1764 713.86 98.3293 712.373 102.863 696.402C107.252 680.945 100.782 665.877 86.9955 654.891C73.1999 643.897 55.8567 638.215 37.4329 638.429C31.9309 638.493 25.0092 639.01 20.3852 641.87C19.5836 642.365 17.7788 644.104 18.4502 645.215C19.3414 646.689 21.9994 648.064 23.5149 648.877C30.4478 652.594 38.1755 654.754 46.0001 656.245C57.5256 658.442 68.6061 659.211 80.2091 658.286C87.6238 657.694 96.242 656.941 102.717 653.639C112.971 648.409 101.196 636.842 96.3088 631.806C80.3329 615.342 56.4282 603.311 31.6416 602.664C29.2764 602.603 11.421 602.891 14.192 608.429C15.3607 610.764 18.8535 612.02 21.1658 613.236C28.8304 617.265 37.4767 619.478 46.1573 620.889C70.0291 624.767 97.2743 617.575 112.726 601.854C119.366 595.098 121.498 585.461 120.697 576.543C118.722 554.552 93.1203 541.214 71.1081 535.254C64.2635 533.401 53.8765 530.598 46.7599 533.109C45.8631 533.426 44.9573 533.936 46.0196 534.734C48.8142 536.832 52.8299 538.484 55.9962 540.087C63.8813 544.082 72.9145 546.264 81.7734 547.53C89.4319 548.624 98.4152 549.347 105.031 545.509C110.767 542.182 112.765 534.782 112.78 529.045C112.812 516.996 108.761 504.112 102.534 493.199C96.8998 483.323 89.2922 475.823 79.8984 468.539" stroke="#1EE3E4" stroke-width="2" stroke-linecap="round"/>
</svg>
