<svg width="22" height="18" viewBox="0 0 22 18" fill="none" xmlns="http://www.w3.org/2000/svg">
<path d="M7.03611 3.9751C7.20556 3.64732 7.07778 3.24455 6.75278 3.0751C6.42778 2.90566 6.02222 3.03344 5.85278 3.35844L3.26667 8.33344H0.888889C0.397222 8.33344 0 8.73066 0 9.22232C0 9.71399 0.397222 10.1112 0.888889 10.1112L2.33056 15.8751C2.52778 16.6668 3.23889 17.2223 4.05556 17.2223H11.9444C12.7611 17.2223 13.4722 16.6668 13.6694 15.8751L15.1111 10.1112C15.6028 10.1112 16 9.71399 16 9.22232C16 8.73066 15.6028 8.33344 15.1111 8.33344H12.7333L10.1472 3.35844C9.97778 3.03344 9.575 2.90566 9.24722 3.0751C8.91944 3.24455 8.79445 3.64732 8.96389 3.9751L11.2306 8.33344H4.76944L7.03611 3.9751ZM5.33333 11.4445V14.1112C5.33333 14.3557 5.13333 14.5557 4.88889 14.5557C4.64444 14.5557 4.44444 14.3557 4.44444 14.1112V11.4445C4.44444 11.2001 4.64444 11.0001 4.88889 11.0001C5.13333 11.0001 5.33333 11.2001 5.33333 11.4445ZM8 11.0001C8.24444 11.0001 8.44444 11.2001 8.44444 11.4445V14.1112C8.44444 14.3557 8.24444 14.5557 8 14.5557C7.75556 14.5557 7.55556 14.3557 7.55556 14.1112V11.4445C7.55556 11.2001 7.75556 11.0001 8 11.0001ZM11.5556 11.4445V14.1112C11.5556 14.3557 11.3556 14.5557 11.1111 14.5557C10.8667 14.5557 10.6667 14.3557 10.6667 14.1112V11.4445C10.6667 11.2001 10.8667 11.0001 11.1111 11.0001C11.3556 11.0001 11.5556 11.2001 11.5556 11.4445Z" fill="white"/>
<circle cx="17" cy="5" r="5" fill="#FF7373"/>
</svg>
