<svg width="45" height="13" viewBox="0 0 45 13" fill="none" xmlns="http://www.w3.org/2000/svg">
<path d="M2 5.10406C2.39556 5.05341 2.90084 4.73468 3.329 4.6382C7.15938 3.77513 11.0698 3.32065 14.9631 2.8767C20.9011 2.19959 26.8994 1.79704 32.8726 2.10513C36.021 2.26752 39.5509 2.42465 42.5807 3.45902C42.9335 3.57949 43.2122 3.70076 42.7796 3.82296C41.7063 4.12621 40.3969 3.92487 39.3043 3.92487C35.3064 3.92487 31.5799 4.52182 27.6845 5.43889C23.9761 6.31195 20.2494 7.09323 16.5408 7.9574C16.0249 8.07762 15.5124 8.18569 14.9915 8.27768C14.8198 8.30799 14.3348 8.28788 14.4798 8.38686C14.625 8.48603 13.9629 8.84371 13.8686 8.90367C13.1114 9.38505 12.2548 9.69699 11.6654 10.4104C11.2325 10.9344 11.4969 10.7653 11.9781 10.5778C13.1154 10.1349 14.2301 9.77332 15.4534 9.68979C18.4744 9.48352 21.4213 9.64795 24.4153 10.1848C25.4435 10.3691 26.7609 10.5125 27.7129 11" stroke="white" stroke-width="3" stroke-linecap="round"/>
</svg>
